<?xml version="1.0" encoding="utf-8"?>
<!-- Generator: Adobe Illustrator 21.0.0, SVG Export Plug-In . SVG Version: 6.00 Build 0)  -->
<!DOCTYPE svg PUBLIC "-//W3C//DTD SVG 1.1//EN" "http://www.w3.org/Graphics/SVG/1.1/DTD/svg11.dtd">
<svg version="1.1" id="Layer_1" xmlns="http://www.w3.org/2000/svg" xmlns:xlink="http://www.w3.org/1999/xlink" x="0px" y="0px"
	 viewBox="0 0 30 30" style="enable-background:new 0 0 30 30;" xml:space="preserve">
<style type="text/css">
	.st0{fill:#FFFFFF;}
</style>
<g>
	<circle class="st0" cx="15.1" cy="15" r="13.5"/>
	<path d="M15,0c4.2,0,7.8,1.5,10.7,4.4c1.4,1.4,2.5,3,3.2,4.8C29.6,11,30,13,30,15c0,2.1-0.4,4-1.1,5.8c-0.7,1.8-1.8,3.4-3.2,4.8
		c-1.5,1.4-3.1,2.6-5,3.3C18.9,29.6,17,30,15,30s-3.9-0.4-5.7-1.1c-1.8-0.8-3.4-1.9-4.9-3.3s-2.5-3.1-3.3-4.9S0,17,0,15
		c0-2,0.4-3.9,1.1-5.7S3,5.8,4.4,4.4C7.3,1.5,10.8,0,15,0z M15,2.7c-3.4,0-6.3,1.2-8.7,3.6c-1.2,1.2-2.1,2.5-2.7,4
		c-0.6,1.5-1,3-1,4.7c0,1.6,0.3,3.2,1,4.6c0.6,1.5,1.5,2.8,2.7,4c1.2,1.2,2.5,2.1,4,2.7c1.5,0.6,3,0.9,4.7,0.9
		c1.6,0,3.2-0.3,4.7-0.9c1.5-0.6,2.9-1.5,4.1-2.7c2.3-2.3,3.5-5.2,3.5-8.6c0-1.7-0.3-3.2-0.9-4.7c-0.6-1.5-1.5-2.8-2.7-4
		C21.3,3.9,18.4,2.7,15,2.7z M14.8,12.5l-2,1c-0.2-0.4-0.5-0.8-0.8-0.9c-0.3-0.2-0.6-0.3-0.9-0.3c-1.3,0-2,0.9-2,2.7
		c0,0.8,0.2,1.4,0.5,1.9c0.3,0.5,0.8,0.7,1.5,0.7c0.9,0,1.5-0.4,1.8-1.3l1.8,0.9c-0.4,0.7-0.9,1.3-1.6,1.7c-0.7,0.4-1.5,0.6-2.3,0.6
		c-1.3,0-2.4-0.4-3.2-1.2c-0.8-0.8-1.2-2-1.2-3.4c0-1.4,0.4-2.6,1.2-3.4c0.8-0.8,1.9-1.3,3.1-1.3C12.7,10.3,14,11.1,14.8,12.5z
		 M23.5,12.5l-2,1c-0.2-0.4-0.5-0.8-0.8-0.9c-0.3-0.2-0.6-0.3-0.9-0.3c-1.3,0-2,0.9-2,2.7c0,0.8,0.2,1.4,0.5,1.9s0.8,0.7,1.5,0.7
		c0.9,0,1.5-0.4,1.8-1.3l1.9,0.9c-0.4,0.7-1,1.3-1.7,1.7c-0.7,0.4-1.5,0.6-2.3,0.6c-1.4,0-2.4-0.4-3.3-1.2c-0.8-0.8-1.2-2-1.2-3.4
		c0-1.4,0.4-2.6,1.2-3.4c0.8-0.8,1.9-1.3,3.1-1.3C21.4,10.3,22.7,11.1,23.5,12.5z"/>
</g>
</svg>
